<?xml version="1.0" encoding="utf-8"?>
<!-- Generator: Adobe Illustrator 14.0.0, SVG Export Plug-In  -->
<!DOCTYPE svg PUBLIC "-//W3C//DTD SVG 1.1//EN" "http://www.w3.org/Graphics/SVG/1.1/DTD/svg11.dtd" [
	<!ENTITY ns_flows "http://ns.adobe.com/Flows/1.0/">
]>
<svg version="1.1"
	 xmlns="http://www.w3.org/2000/svg" xmlns:xlink="http://www.w3.org/1999/xlink" xmlns:a="http://ns.adobe.com/AdobeSVGViewerExtensions/3.0/"
	 x="0px" y="0px" width="412px" height="412px" viewBox="0 0 412 412" enable-background="new 0 0 412 412" xml:space="preserve">
<defs>
</defs>
<path id="youtube-2-icon_1_" fill="#D4D4D4" d="M240.033,244.822c-5.191,0-9.645,3.309-12.926,7.306v-34.122H212.43v105.992h14.678
	v-6.01c4.054,5.053,8.485,6.998,13.81,6.998c9.672,0,13.291-7.514,13.291-17.188v-43.377
	C254.207,253.816,250.681,244.822,240.033,244.822z M239.245,305.672c0,2.492-0.421,4.289-1.259,5.389
	c-1.603,2.099-5.072,2.004-7.438,0.806c-1.11-0.56-2.258-1.478-3.44-2.748v-48.726c0.986-1.072,1.984-1.869,2.998-2.383
	c2.543-1.287,5.828-1.037,7.586,1.284c1.037,1.368,1.554,3.37,1.554,6.008V305.672L239.245,305.672z M183.709,245.811h14.537v78.188
	h-14.537v-8.631c-2.68,3.181-5.465,5.604-8.363,7.269c-7.836,4.487-18.594,4.391-18.594-11.474v-65.353h14.538v59.937
	c0,3.146,0.763,5.271,3.872,5.271c2.833,0,6.773-3.636,8.547-5.855V245.811L183.709,245.811z M156.951,233.391h-16.938v90.607
	h-16.371v-90.607h-16.937v-15.385h50.245L156.951,233.391L156.951,233.391z M190.281,151.917v-38.188
	c0-4.493,2.068-7.829,6.356-7.829c4.681,0,6.685,3.235,6.685,7.829v38.188c0,4.47-2.278,7.773-6.385,7.773
	C192.721,159.69,190.281,156.242,190.281,151.917z M0,0v412h412V0H0z M231.84,90.995h15.264v62.934c0,3.302,0.799,5.531,4.066,5.531
	c2.977,0,7.114-3.818,8.975-6.148V90.995h15.265v82.099h-15.265v-9.063c-6.613,7.846-13.023,10.249-17.643,10.249
	c-8.184,0-10.662-6.555-10.662-14.665V90.995L231.84,90.995z M196.938,90.319c12.373,0,21.944,9.206,21.944,22.056v40.242
	c0,13.79-9.669,22-21.944,22c-14.805,0-22.365-7.532-22.365-22v-40.242C174.572,99.203,183.494,90.319,196.938,90.319z
	 M135.018,61.8l11.854,44.485L157.886,61.8h17.467l-20.006,66.153v45.14h-17.191v-45.14L117.703,61.8H135.018z M330.961,315.2
	c0,19.329-15.67,35-35,35H116.039c-19.33,0-35-15.671-35-35v-88.421c0-19.331,15.67-35.001,35-35.001h179.922
	c19.33,0,35,15.67,35,35.001V315.2z M287.252,243.834c-13.113,0-22.08,9.424-22.08,22.997v35.095c0,14.076,7.1,24.189,20.979,24.189
	c15.318,0,21.786-9.123,21.786-24.189v-5.873h-14.963v5.436c0,6.808-0.356,10.938-6.493,10.938c-5.854,0-6.35-5.072-6.35-10.938
	v-14.75h27.806v-19.906C307.938,252.699,301.198,243.834,287.252,243.834z M292.976,274.602h-12.843v-7.916
	c0-5.373,1.107-9.162,6.494-9.162c5.229,0,6.349,3.879,6.349,9.162V274.602z"/>
</svg>
