<?xml version="1.0" encoding="utf-8"?>
<!-- Generator: Adobe Illustrator 14.0.0, SVG Export Plug-In  -->
<!DOCTYPE svg PUBLIC "-//W3C//DTD SVG 1.1//EN" "http://www.w3.org/Graphics/SVG/1.1/DTD/svg11.dtd" [
	<!ENTITY ns_flows "http://ns.adobe.com/Flows/1.0/">
]>
<svg version="1.1"
	 xmlns="http://www.w3.org/2000/svg" xmlns:xlink="http://www.w3.org/1999/xlink" xmlns:a="http://ns.adobe.com/AdobeSVGViewerExtensions/3.0/"
	 x="0px" y="0px" width="284px" height="284px" viewBox="-0.5 -0.413 284 284" enable-background="new -0.5 -0.413 284 284"
	 xml:space="preserve">
<defs>
</defs>
<path fill="#D4D4D4" d="M0,0v283h283V0H0z M183.407,234.664c-15.63,17.021-35.685,25.518-60.168,25.518
	c-24.639,0-44.758-8.495-60.359-25.518s-23.401-36.914-23.401-59.647c0-22.56,7.368-42.123,22.141-58.697
	c16.26-18.259,36.79-27.393,61.619-27.393c10.422,0,20.076,1.648,29.011,4.878c-2.9,5.662-5.521,12.62-6.219,20.061
	c-7.104-2.944-14.736-4.446-22.873-4.446c-17.175,0-31.926,6.453-44.268,19.329c-12.318,12.868-18.485,28.454-18.485,46.706
	c0,11.776,2.834,22.764,8.438,32.93c5.625,10.181,13.22,18.047,22.778,23.584c6.35,3.667,13.101,6.112,20.263,7.351
	c61.641-23.865,54.069-141.085,53.683-146.542c-2.459-7.178-13.179-36.879-32.894-69.967c0,0,28.074,18.604,32.877,69.749
	c0,0,0.008,0.088,0.017,0.218c0.368,1.075,0.556,1.657,0.556,1.657c36.051,96.254-42.539,145.825-42.539,145.825
	c-0.153,0.008-0.303,0.01-0.455,0.016c0.01,0,0.02,0,0.03,0c11.44,0,21.937-2.77,31.494-8.307
	c9.58-5.537,17.168-13.402,22.793-23.584c5.625-10.166,8.438-21.152,8.438-32.93c0-9.551-1.729-18.369-5.099-26.426
	c5.625-1.193,12.451-3.494,19.601-7.903c4.263,10.422,6.416,21.702,6.416,33.889C206.801,197.75,199.008,217.642,183.407,234.664z
	 M239.365,95.525c0,0-6.343,17.227-19.541,25.085c-9.977,5.925-25.093,7.8-40.884-7.668c0,0,47.769-26.177,49.569-48.34
	c0,0-14.678,32.981-54.813,42.114c0,0-14.647-22.646,3.955-41.323c0,0,6.504-7.185,25.077-11.909c0,0,18.574-3.955,28.623-25.276
	C231.352,28.209,252.153,57.271,239.365,95.525z"/>
</svg>
