<?xml version="1.0" encoding="utf-8"?>
<!-- Generator: Adobe Illustrator 14.0.0, SVG Export Plug-In  -->
<!DOCTYPE svg PUBLIC "-//W3C//DTD SVG 1.1//EN" "http://www.w3.org/Graphics/SVG/1.1/DTD/svg11.dtd" [
	<!ENTITY ns_flows "http://ns.adobe.com/Flows/1.0/">
]>
<svg version="1.1"
	 xmlns="http://www.w3.org/2000/svg" xmlns:xlink="http://www.w3.org/1999/xlink" xmlns:a="http://ns.adobe.com/AdobeSVGViewerExtensions/3.0/"
	 x="0px" y="0px" width="413px" height="412px" viewBox="-0.473 0 413 412" enable-background="new -0.473 0 413 412"
	 xml:space="preserve">
<defs>
</defs>
<path id="linkedin-square-icon_1_" fill="#D4D4D4" d="M0,0v412h412V0H0z M131.049,342.99H74.513V160.336h56.536V342.99z
	 M102.511,136.417c-18.464,0-33.432-15.09-33.432-33.704c0-18.614,14.968-33.704,33.432-33.704
	c18.463,0,33.432,15.089,33.432,33.704C135.943,121.328,120.974,136.417,102.511,136.417z M342.92,342.99h-56.262
	c0,0,0-69.582,0-95.881c0-26.297-9.99-40.975-30.782-40.975c-22.629,0-34.451,15.289-34.451,40.975c0,28.133,0,95.881,0,95.881
	H167.2V160.336h54.226v24.599c0,0,16.309-30.171,55.04-30.171c38.732,0,66.455,23.648,66.455,72.572
	C342.92,276.262,342.92,342.99,342.92,342.99z"/>
</svg>
