<?xml version="1.0" encoding="utf-8"?>
<!-- Generator: Adobe Illustrator 14.0.0, SVG Export Plug-In  -->
<!DOCTYPE svg PUBLIC "-//W3C//DTD SVG 1.1//EN" "http://www.w3.org/Graphics/SVG/1.1/DTD/svg11.dtd" [
	<!ENTITY ns_flows "http://ns.adobe.com/Flows/1.0/">
]>
<svg version="1.1"
	 xmlns="http://www.w3.org/2000/svg" xmlns:xlink="http://www.w3.org/1999/xlink" xmlns:a="http://ns.adobe.com/AdobeSVGViewerExtensions/3.0/"
	 x="0px" y="0px" width="413px" height="412px" viewBox="-0.473 0 413 412" enable-background="new -0.473 0 413 412"
	 xml:space="preserve">
<defs>
</defs>
<path id="google-plus-square-icon_1_" fill="#D4D4D4" d="M214.441,291.824c0,25.309-20.555,45.082-63.102,45.082
	c-33.281,0-57.314-21.066-57.314-46.375c0-24.801,28.202-46.195,61.481-45.829C192.432,244.702,214.441,267.698,214.441,291.824z
	 M412,0v412H0V0H412z M243.108,288.882c0-23.364-8.724-38.63-35.119-58.405c-26.771-19.524-33.313-30.556-7.761-50.311
	c14.398-11.133,24.488-25.973,24.488-44.295c0-19.961-8.162-38.071-23.51-46.864h21.754l18.521-19.438c0,0-69.817,0-82.879,0
	c-51.736,0-77.105,31.01-77.105,65.122c0,34.861,23.915,62.316,70.615,62.316c-7.24,14.617-4.332,28.117,7.514,37.771
	c-79.759,0-96.826,34.998-96.826,61.957c0,34.933,40.154,55.699,88.303,55.699C216.939,352.434,243.108,317.543,243.108,288.882z
	 M351.2,111.626h-38.235V73.391h-19.117v38.235h-38.235v19.117h38.235v38.235h19.117v-38.235h38.234L351.2,111.626L351.2,111.626z
	 M191.417,137.117c-3.854-29.333-22.965-53.398-45.294-54.07c-22.336-0.665-37.316,21.783-33.458,51.124
	c3.856,29.333,25.085,49.825,47.425,50.498C182.418,185.333,195.269,166.455,191.417,137.117z"/>
</svg>
